<svg width="157" height="48" viewBox="0 0 157 48" fill="none" xmlns="http://www.w3.org/2000/svg">
<g clip-path="url(#clip0_1_5)">
<path fill-rule="evenodd" clip-rule="evenodd" d="M7.57789 2.36839C5.45777 3.28589 5.9157 6.06924 6.2707 8.15799L6.27565 8.16624C8.14314 7.47109 10.8841 6.38186 13.7225 6.39232C16.5609 6.40278 17.8725 7.21626 17.3584 9.66111C16.8438 12.106 14.3824 23.9796 14.3202 24.2801C13.8661 24.6131 7.81676 25.9451 7.91473 21.8744C8.01215 17.8521 11.1345 16.3341 12.9965 15.5206C14.3274 14.9388 14.4264 11.844 14.6444 10.9925C8.20424 11.877 1.3887 14.225 0.202602 20.7587C-0.984048 27.2919 3.12465 29.6718 10.359 29.6999C17.594 29.7279 21.4528 27.5853 21.4528 27.5853C21.4528 27.5853 24.1926 14.4501 24.8597 11.1967C25.5268 7.94443 25.1823 5.32621 23.7721 3.59136C22.3664 1.86478 19.8533 0.883423 16.5697 0.883423C11.5627 0.883423 8.25983 2.08383 7.57789 2.36839Z" fill="#C6002A"/>
<path fill-rule="evenodd" clip-rule="evenodd" d="M54.8875 2.36851C52.7673 3.28602 53.2258 6.06936 53.5803 8.15811L53.5852 8.16636C55.4527 7.47122 58.1942 6.38198 61.0326 6.39244C63.8704 6.4029 65.1826 7.21638 64.668 9.66123C64.1533 12.1061 61.692 23.9797 61.6298 24.2803C61.1757 24.6132 55.1263 25.9452 55.2249 21.8745C55.3223 17.8522 58.4441 16.3342 60.3066 15.5207C61.6369 14.939 61.7366 11.8441 61.954 10.9926C55.5138 11.8771 48.6983 14.2251 47.5122 20.7588C46.3255 27.292 50.4342 29.6719 57.6692 29.7C64.9035 29.7281 68.7624 27.5854 68.7624 27.5854C68.7624 27.5854 71.5022 14.4502 72.1693 11.1968C72.8364 7.94455 72.4924 5.32633 71.0817 3.59149C69.676 1.8649 67.1629 0.883545 63.8798 0.883545C58.8723 0.883545 55.5694 2.08396 54.8875 2.36851Z" fill="#C6002A"/>
<path fill-rule="evenodd" clip-rule="evenodd" d="M38.7667 27.8248C39.545 26.2964 52.2426 1.39871 52.2426 1.39871H46.115C44.1276 1.39871 43.0614 3.71752 42.3388 5.3577C41.7047 6.79753 39.3045 11.8892 36.1766 19.2062C36.2701 17.9232 35.7819 6.52564 35.6625 4.02574C35.586 2.4241 34.2452 1.39871 31.8538 1.39871H26.9905L30.0666 29.2839C30.0666 29.2839 35.7214 29.2784 36.1127 29.2839C36.5046 29.2899 37.9885 29.3532 38.7667 27.8248Z" fill="#C6002A"/>
<path fill-rule="evenodd" clip-rule="evenodd" d="M88.3588 29.527H94.6157C96.2938 21.1093 98.6957 10.4113 98.7524 8.1932C98.8311 5.07137 96.9537 0.964874 88.3423 0.964874C82.1756 0.964874 77.3184 3.08775 77.3184 3.08775L72.4937 26.5087C72.4937 26.5087 77.7141 24.2179 79.0753 23.6131C81.0132 22.7506 81.4249 20.9569 81.8911 18.8554C82.3573 16.7546 84.315 7.29661 84.3745 7.00655C85.1456 6.76933 86.554 6.50955 87.7968 6.50955C89.8129 6.50955 90.8878 7.39953 90.879 8.90541C90.8752 9.57634 88.2718 22.3075 87.2569 27.3844C87.2569 27.3844 86.6724 29.6096 88.3588 29.527Z" fill="#C6002A"/>
<path fill-rule="evenodd" clip-rule="evenodd" d="M118.642 5.29918L119.937 3.13118C119.937 3.13118 117.26 0.894379 112.325 0.894379C105.306 0.894379 101.418 5.96296 101.418 10.731C101.418 17.0738 108.471 16.6318 108.471 20.1142C108.471 21.8017 107.033 24.6191 102.111 23.203C100.406 22.712 99.4163 23.5354 99.0277 24.1381C98.6942 24.6566 97.0254 27.4564 97.0254 27.4564C97.0254 27.4564 99.915 29.6998 104.827 29.6998C113.117 29.6998 117.116 24.2856 117.116 19.2566C117.116 13.0691 109.569 13.1517 109.569 9.77389C109.569 7.93337 111.3 5.91948 114.539 6.73571C115.396 6.95202 117.131 7.68239 118.642 5.29918Z" fill="#C6002A"/>
<path fill-rule="evenodd" clip-rule="evenodd" d="M91.1897 37.9324L90.0537 43.4231H88.2764L89.4279 37.8735C89.4565 37.7419 89.4702 37.6115 89.4702 37.4954C89.4702 36.9565 89.1934 36.5344 88.3496 36.5344C87.8686 36.5344 87.4459 36.65 87.0094 36.869L85.6555 43.4231H83.8777L86.2521 31.9903H88.0293L87.2136 35.8783C87.6655 35.6449 88.3799 35.4259 89.0624 35.4259C90.5193 35.4259 91.2475 36.1689 91.2475 37.3049C91.2475 37.5091 91.2337 37.7133 91.1897 37.9324Z" fill="#C6002A"/>
<path fill-rule="evenodd" clip-rule="evenodd" d="M96.4753 36.5483C95.719 36.5483 95.1951 37.0723 94.8312 37.8439C94.452 38.647 94.1174 40.0725 94.1174 40.9608C94.1174 41.7622 94.3788 42.3588 95.1951 42.3588C95.9662 42.3588 96.4753 41.8343 96.8253 41.0775C97.2034 40.2624 97.5254 38.8055 97.5254 37.9171C97.5254 37.1312 97.2777 36.5483 96.4753 36.5483ZM98.1798 41.8205C97.4814 42.8977 96.4461 43.568 95.0354 43.568C93.2731 43.568 92.3979 42.4315 92.3979 40.8018C92.3979 39.6206 92.8058 38.1367 93.4459 37.1609C94.1609 36.0816 95.2242 35.4261 96.6074 35.4261C98.3846 35.4261 99.2289 36.5483 99.2289 38.194C99.2289 39.3592 98.8067 40.8584 98.1798 41.8205Z" fill="#C6002A"/>
<path fill-rule="evenodd" clip-rule="evenodd" d="M104.837 36.4752C103.963 36.4752 103.308 36.97 102.811 37.8732C102.375 38.6757 102.055 39.9856 102.055 40.9037C102.055 41.9225 102.492 42.4619 103.482 42.4619C103.89 42.4619 104.269 42.3584 104.545 42.2142L105.708 36.6348C105.551 36.5484 105.287 36.4752 104.837 36.4752ZM106.002 43.539C105.566 45.6652 104.137 46.6994 102.141 46.6994C101.094 46.6994 100.103 46.4665 99.55 46.1313L100.234 45.0251C100.627 45.2436 101.325 45.4323 102.069 45.4323C103.335 45.4323 104.022 44.675 104.239 43.6992L104.343 43.2181C104.005 43.3788 103.495 43.4961 102.871 43.4961C101.312 43.4961 100.322 42.4756 100.322 40.7876C100.322 39.5916 100.802 38.1077 101.501 37.161C102.301 36.0668 103.495 35.4262 105.071 35.4262C106.176 35.4262 107.079 35.6876 107.56 35.9804L106.002 43.539Z" fill="#C6002A"/>
<path fill-rule="evenodd" clip-rule="evenodd" d="M112.455 36.5042C111.74 36.5042 111.085 36.9561 110.633 37.7999C110.428 38.194 110.255 38.6756 110.137 39.2425L113.517 38.7471C113.59 38.4273 113.619 38.1213 113.619 37.8593C113.619 36.9413 113.196 36.5042 112.455 36.5042ZM115.033 39.4626L110.094 40.1457C109.978 41.3406 110.327 42.3445 111.754 42.3445C112.599 42.3445 113.386 42.083 113.823 41.8623L114.026 43C113.429 43.3049 112.484 43.568 111.391 43.568C109.556 43.568 108.39 42.563 108.39 40.6559C108.39 39.4907 108.812 38.1075 109.468 37.1609C110.227 36.0667 111.332 35.426 112.644 35.426C114.244 35.426 115.207 36.3589 115.207 38.0635C115.207 38.4857 115.147 38.9513 115.033 39.4626Z" fill="#C6002A"/>
<path fill-rule="evenodd" clip-rule="evenodd" d="M120.959 36.9563C120.727 36.7532 120.259 36.5925 119.764 36.5925C118.995 36.5925 118.397 37.1748 118.397 37.8595C118.397 39.1254 120.784 38.8205 120.784 40.699C120.784 42.185 119.591 43.5682 117.433 43.5682C116.604 43.5682 115.789 43.3205 115.366 42.9996L116.037 41.9076C116.284 42.0981 116.794 42.316 117.433 42.316C118.323 42.316 118.934 41.617 118.934 40.9037C118.934 39.6207 116.677 39.9554 116.677 38.0774C116.677 36.7532 117.784 35.4262 119.634 35.4262C120.464 35.4262 121.104 35.6447 121.571 35.9942L120.959 36.9563Z" fill="#C6002A"/>
<path fill-rule="evenodd" clip-rule="evenodd" d="M127.513 36.9413C127.352 36.824 127.018 36.6209 126.581 36.6209C125.852 36.6209 125.241 37.0293 124.804 37.7861C124.367 38.5297 124.089 39.6938 124.089 40.5689C124.089 41.6312 124.512 42.2581 125.284 42.2581C125.736 42.2581 126.217 42.083 126.465 41.8937L126.653 43C126.288 43.3055 125.59 43.568 124.76 43.568C123.274 43.568 122.299 42.388 122.299 40.597C122.299 39.4312 122.706 38.0332 123.362 37.0866C124.119 35.9803 125.197 35.426 126.319 35.426C127.163 35.426 127.862 35.7469 128.111 35.994L127.513 36.9413Z" fill="#C6002A"/>
<path fill-rule="evenodd" clip-rule="evenodd" d="M135.335 37.9324L134.199 43.4231H132.421L133.572 37.8735C133.601 37.7419 133.615 37.6115 133.615 37.4954C133.615 36.9565 133.338 36.5344 132.493 36.5344C132.014 36.5344 131.591 36.65 131.154 36.869L129.799 43.4231H128.023L130.398 31.9903H132.175L131.357 35.8783C131.809 35.6449 132.523 35.4259 133.208 35.4259C134.665 35.4259 135.392 36.1689 135.392 37.3049C135.392 37.5091 135.378 37.7133 135.335 37.9324Z" fill="#C6002A"/>
<path fill-rule="evenodd" clip-rule="evenodd" d="M140.621 36.5483C139.862 36.5483 139.34 37.0723 138.976 37.8439C138.597 38.647 138.261 40.0725 138.261 40.9608C138.261 41.7622 138.523 42.3588 139.34 42.3588C140.111 42.3588 140.621 41.8343 140.97 41.0775C141.35 40.2624 141.669 38.8055 141.669 37.9171C141.669 37.1312 141.422 36.5483 140.621 36.5483ZM142.326 41.8205C141.627 42.8977 140.592 43.568 139.179 43.568C137.418 43.568 136.543 42.4315 136.543 40.8018C136.543 39.6206 136.951 38.1367 137.591 37.1609C138.304 36.0816 139.368 35.4261 140.752 35.4261C142.529 35.4261 143.374 36.5483 143.374 38.194C143.374 39.3592 142.952 40.8584 142.326 41.8205Z" fill="#C6002A"/>
<path fill-rule="evenodd" clip-rule="evenodd" d="M148.572 36.5483C147.816 36.5483 147.293 37.0723 146.927 37.8439C146.549 38.647 146.213 40.0725 146.213 40.9608C146.213 41.7622 146.476 42.3588 147.293 42.3588C148.063 42.3588 148.572 41.8343 148.923 41.0775C149.301 40.2624 149.621 38.8055 149.621 37.9171C149.621 37.1312 149.374 36.5483 148.572 36.5483ZM150.278 41.8205C149.577 42.8977 148.544 43.568 147.13 43.568C145.368 43.568 144.495 42.4315 144.495 40.8018C144.495 39.6206 144.903 38.1367 145.543 37.1609C146.256 36.0816 147.321 35.4261 148.705 35.4261C150.482 35.4261 151.325 36.5483 151.325 38.194C151.325 39.3592 150.902 40.8584 150.278 41.8205Z" fill="#C6002A"/>
<path fill-rule="evenodd" clip-rule="evenodd" d="M153.845 43.4228H152.083L154.456 31.9906H156.22L153.845 43.4228Z" fill="#C6002A"/>
</g>
<defs>
<clipPath id="clip0_1_5">
<rect width="157" height="46.2331" fill="white" transform="translate(0 0.883423)"/>
</clipPath>
</defs>
</svg>
